{"glyphs":{":":{"x_min":0,"x_max":208,"ha":208,"o":"m 104 92 q 125 92 139 77 q 154 63 154 42 q 154 22 139 7 q 124 -8 104 -8 q 84 -8 69 7 q 54 22 54 42 q 54 62 69 77 q 84 92 104 92 z m 104 371 q 125 371 139 356 q 154 342 154 321 q 154 301 139 286 q 124 271 104 271 q 84 271 69 286 q 54 301 54 321 q 54 341 69 356 q 84 371 104 371 z"},"$":{"x_min":0,"x_max":389,"ha":389,"o":"m 204 289 l 204 61 q 243 63 264 90 q 285 117 285 164 q 285 200 265 231 q 244 263 204 289 z m 172 403 l 172 603 q 140 603 120 580 q 100 556 100 519 q 100 481 117 454 q 134 426 172 403 z m 325 663 l 325 495 l 272 495 q 269 540 251 567 q 233 595 204 601 l 204 386 q 288 336 324 284 q 360 231 360 160 q 360 87 320 42 q 279 -3 214 -3 l 204 -3 l 204 -99 l 172 -99 l 172 -1 q 146 2 124 17 q 101 32 85 57 l 85 0 l 31 0 l 31 185 l 85 185 q 86 136 109 105 q 131 74 172 65 l 172 307 q 100 347 67 396 q 33 444 33 509 q 33 581 71 623 q 109 666 172 666 l 172 727 l 204 727 l 204 663 q 227 656 244 644 q 261 631 272 614 l 272 663 z"},"?":{"x_min":0,"x_max":384,"ha":384,"o":"m 160 86 q 181 86 196 72 q 210 57 210 36 q 210 16 195 1 q 180 -14 160 -14 q 141 -14 125 1 q 110 17 110 36 q 110 56 125 71 q 140 86 160 86 z m 192 333 l 192 189 l 124 189 l 124 393 l 140 393 q 207 393 236 420 q 265 447 265 509 q 265 564 241 595 q 217 625 174 625 q 141 625 124 606 q 106 588 106 553 l 106 539 l 36 539 l 36 560 q 36 623 75 659 q 113 696 180 696 q 254 696 296 647 q 338 599 338 513 q 338 428 302 384 q 266 339 192 333 z"},"<":{"x_min":0,"x_max":833,"ha":833,"o":"m 704 497 l 216 298 l 704 100 l 704 37 l 129 273 l 129 323 l 704 559 z"},"'":{"x_min":0,"x_max":149,"ha":149,"o":"m 103 700 l 103 430 l 46 430 l 46 700 z"},"=":{"x_min":0,"x_max":833,"ha":833,"o":"m 709 233 l 709 176 l 124 176 l 124 233 z m 709 420 l 709 363 l 124 363 l 124 420 z"},"a":{"x_min":0,"x_max":398,"ha":398,"o":"m 112 166 q 112 108 125 83 q 139 59 170 59 q 204 59 225 91 q 245 122 245 175 l 245 271 q 245 324 227 351 q 209 378 175 378 q 142 378 127 354 q 112 329 112 273 z m 254 54 q 229 21 204 7 q 180 -8 150 -8 q 92 -8 63 42 q 35 91 35 195 l 35 276 q 35 358 68 402 q 101 446 161 446 q 192 446 216 431 q 239 416 258 384 l 258 437 l 368 437 l 368 377 l 322 377 l 322 58 l 368 58 l 368 0 l 254 0 z"},"L":{"x_min":0,"x_max":477,"ha":477,"o":"m 25 0 l 25 62 l 93 62 l 93 618 l 25 618 l 25 681 l 245 681 l 245 618 l 178 618 l 178 65 l 380 65 l 380 198 l 456 198 l 456 0 z"},"3":{"x_min":0,"x_max":389,"ha":389,"o":"m 239 353 q 290 348 315 302 q 341 255 341 169 q 341 78 301 32 q 261 -14 181 -14 q 110 -14 72 34 q 34 83 34 175 l 34 196 l 106 196 l 106 171 q 106 112 126 83 q 146 54 187 54 q 228 54 245 82 q 263 109 263 175 q 263 261 241 289 q 219 317 158 317 l 147 317 l 147 380 q 213 381 237 406 q 261 432 261 507 q 261 562 244 588 q 227 614 191 614 q 150 614 130 585 q 110 556 110 495 l 110 478 l 41 478 l 41 504 q 41 592 78 636 q 115 680 190 680 q 261 680 299 636 q 337 592 337 511 q 337 433 313 393 q 289 353 241 353 z"},";":{"x_min":0,"x_max":208,"ha":208,"o":"m 75 92 l 139 92 l 82 -106 l 18 -106 z m 106 371 q 127 371 142 356 q 157 342 157 321 q 157 301 142 286 q 126 271 106 271 q 86 271 72 286 q 57 301 57 321 q 57 341 72 356 q 86 371 106 371 z"},"J":{"x_min":0,"x_max":271,"ha":271,"o":"m 3 -106 l 3 -35 l 20 -35 q 66 -35 83 -18 q 100 0 100 52 l 100 618 l 32 618 l 32 681 l 252 681 l 252 618 l 185 618 l 185 59 q 185 -24 146 -65 q 107 -106 29 -106 z"},"V":{"x_min":0,"x_max":481,"ha":481,"o":"m 213 -7 l 54 618 l 11 618 l 11 681 l 203 681 l 203 618 l 143 618 l 246 157 l 350 618 l 291 618 l 291 681 l 476 681 l 476 618 l 424 618 l 276 -7 z"},"\"":{"x_min":0,"x_max":288,"ha":288,"o":"m 242 700 l 242 430 l 184 430 l 184 700 z m 103 700 l 103 430 l 46 430 l 46 700 z"},"7":{"x_min":0,"x_max":389,"ha":389,"o":"m 41 474 l 41 667 l 348 667 l 348 573 l 167 0 l 84 0 l 271 592 l 112 592 l 112 474 z"},"S":{"x_min":0,"x_max":426,"ha":426,"o":"m 33 0 l 33 206 l 102 206 q 111 134 144 95 q 176 56 228 56 q 268 56 292 81 q 317 106 317 147 q 317 177 300 204 q 284 231 247 262 l 133 357 q 85 397 62 441 q 38 484 38 532 q 38 603 80 648 q 123 694 187 694 q 224 694 257 678 q 289 662 313 631 l 313 681 l 375 681 l 375 507 l 309 507 q 298 564 269 594 q 240 624 196 624 q 161 624 137 601 q 114 577 114 543 q 114 517 130 491 q 146 465 178 438 l 301 334 q 352 291 375 248 q 398 205 398 153 q 398 80 350 33 q 302 -14 228 -14 q 188 -14 155 5 q 122 23 92 63 l 92 0 z"},"}":{"x_min":0,"x_max":500,"ha":500,"o":"m 275 543 l 275 424 q 275 350 302 319 q 329 289 395 289 q 398 289 406 290 q 413 290 417 290 l 417 228 q 413 228 406 229 q 398 229 395 229 q 329 229 302 199 q 275 168 275 94 l 275 -24 q 275 -99 264 -130 q 253 -161 227 -178 q 208 -191 179 -197 q 151 -202 101 -202 l 81 -202 l 81 -141 q 85 -141 92 -142 q 100 -142 103 -142 q 162 -142 183 -119 q 204 -96 204 -22 l 204 95 q 204 176 225 210 q 247 244 301 259 q 247 274 225 308 q 204 342 204 423 l 204 541 q 204 614 183 637 q 161 660 100 660 l 81 660 l 81 721 l 98 721 q 147 721 177 715 q 207 709 227 696 q 253 679 264 648 q 275 617 275 543 z"},"Z":{"x_min":0,"x_max":440,"ha":440,"o":"m 26 0 l 26 65 l 319 616 l 107 616 l 107 492 l 33 492 l 33 681 l 409 681 l 409 620 l 115 65 l 331 65 l 331 215 l 407 215 l 407 0 z"},"x":{"x_min":0,"x_max":347,"ha":347,"o":"m 0 437 l 151 437 l 151 377 l 119 377 l 178 281 l 242 377 l 212 377 l 212 437 l 343 437 l 343 377 l 313 377 l 214 228 l 319 60 l 345 60 l 345 0 l 194 0 l 194 60 l 234 60 l 167 168 l 96 60 l 135 60 l 135 0 l 0 0 l 0 60 l 25 60 l 131 220 l 34 377 l 0 377 z"},")":{"x_min":0,"x_max":255,"ha":255,"o":"m 75 694 q 140 595 173 497 q 205 399 205 300 q 205 200 173 102 q 140 3 75 -95 l 13 -95 q 70 6 98 105 q 127 204 127 300 q 127 396 98 494 q 70 593 13 694 z"},"&":{"x_min":0,"x_max":574,"ha":574,"o":"m 188 338 q 150 305 131 270 q 112 235 112 197 q 112 142 149 102 q 187 62 238 62 q 270 62 298 76 q 326 90 352 119 z m 248 386 l 395 189 q 411 225 421 261 q 431 296 434 330 l 380 330 l 380 397 l 553 397 l 553 330 l 504 330 q 497 274 481 225 q 465 175 440 130 l 483 69 l 557 69 l 557 0 l 439 0 l 392 64 q 356 24 315 5 q 275 -14 226 -14 q 141 -14 86 40 q 32 95 32 181 q 32 242 60 293 q 88 344 149 392 q 115 435 100 474 q 84 512 84 552 q 84 618 121 656 q 159 694 223 694 q 284 694 322 659 q 359 624 359 566 q 359 513 332 469 q 305 426 248 386 z m 210 437 q 249 472 267 502 q 285 533 285 564 q 285 592 268 609 q 251 627 224 627 q 194 627 176 608 q 158 588 158 556 q 158 530 171 501 q 183 473 210 437 z"},"_":{"x_min":0,"x_max":500,"ha":500,"o":"m 500 -178 l 500 -236 l 0 -236 l 0 -178 z"},"v":{"x_min":0,"x_max":391,"ha":391,"o":"m 167 -8 l 41 377 l 0 377 l 0 437 l 161 437 l 161 377 l 117 377 l 194 120 l 279 377 l 235 377 l 235 437 l 391 437 l 391 377 l 347 377 l 212 -8 z"},"O":{"x_min":0,"x_max":444,"ha":444,"o":"m 412 490 l 412 190 q 412 90 364 38 q 315 -14 222 -14 q 129 -14 81 38 q 32 90 32 190 l 32 490 q 32 590 81 642 q 129 694 222 694 q 315 694 364 642 q 412 590 412 490 z m 325 491 q 325 560 300 593 q 275 625 222 625 q 169 625 144 593 q 119 560 119 491 l 119 189 q 119 120 144 88 q 168 56 222 56 q 275 56 300 88 q 325 120 325 189 z"},"(":{"x_min":0,"x_max":255,"ha":255,"o":"m 179 -95 q 114 3 82 101 q 50 200 50 300 q 50 400 82 498 q 114 596 179 694 l 242 694 q 184 591 156 493 q 127 396 127 300 q 127 205 156 106 q 184 7 242 -95 z"},"C":{"x_min":0,"x_max":426,"ha":426,"o":"m 402 215 l 402 198 q 402 94 355 40 q 308 -14 217 -14 q 126 -14 79 40 q 32 94 32 198 l 32 476 q 32 581 77 637 q 122 694 206 694 q 241 694 272 681 q 303 668 324 644 l 324 681 l 385 681 l 385 483 l 319 483 l 318 499 q 311 565 288 595 q 265 625 222 625 q 169 625 144 593 q 119 560 119 491 l 119 189 q 119 120 144 88 q 168 56 222 56 q 272 56 299 90 q 325 125 325 191 l 325 215 z"},"W":{"x_min":0,"x_max":667,"ha":667,"o":"m 181 -7 l 46 618 l 0 618 l 0 681 l 184 681 l 184 618 l 127 618 l 214 157 l 303 618 l 239 618 l 239 681 l 427 681 l 427 618 l 365 618 l 452 157 l 548 618 l 488 618 l 488 681 l 666 681 l 666 618 l 623 618 l 482 -7 l 427 -7 l 334 472 l 237 -7 z"},"A":{"x_min":0,"x_max":537,"ha":537,"o":"m 192 275 l 343 275 l 269 583 z m 9 0 l 9 62 l 61 62 l 209 618 l 144 618 l 144 681 l 400 681 l 400 618 l 333 618 l 482 62 l 528 62 l 528 0 l 329 0 l 329 62 l 398 62 l 360 211 l 175 211 l 135 62 l 203 62 l 203 0 z"},"f":{"x_min":0,"x_max":229,"ha":229,"o":"m 30 0 l 30 60 l 76 60 l 76 377 l 30 377 l 30 437 l 76 437 l 76 563 q 76 624 101 653 q 126 681 181 681 l 211 681 l 211 625 q 178 625 165 612 q 153 598 153 561 l 153 437 l 206 437 l 206 377 l 153 377 l 153 60 l 199 60 l 199 0 z"},"Q":{"x_min":0,"x_max":444,"ha":444,"o":"m 32 190 l 32 490 q 32 590 81 642 q 129 694 222 694 q 315 694 364 642 q 412 590 412 490 l 412 190 q 412 111 382 63 q 353 14 294 -4 l 401 -114 l 303 -114 l 210 -14 q 122 -9 77 42 q 32 94 32 190 z m 119 189 q 119 120 144 88 q 168 56 222 56 q 275 56 300 88 q 325 120 325 189 l 325 491 q 325 560 300 593 q 275 625 222 625 q 169 625 144 593 q 119 560 119 491 z"},"w":{"x_min":0,"x_max":560,"ha":560,"o":"m 153 -8 l 39 377 l 0 377 l 0 437 l 156 437 l 156 377 l 116 377 l 186 116 l 255 377 l 215 377 l 215 437 l 350 437 l 350 377 l 308 377 l 380 116 l 452 377 l 408 377 l 408 437 l 560 437 l 560 377 l 520 377 l 405 -8 l 354 -8 l 277 266 l 204 -8 z"},"-":{"x_min":0,"x_max":289,"ha":289,"o":"m 30 201 l 30 264 l 259 264 l 259 201 z"},"E":{"x_min":0,"x_max":495,"ha":495,"o":"m 25 0 l 25 62 l 93 62 l 93 618 l 25 618 l 25 681 l 451 681 l 451 499 l 377 499 l 377 616 l 178 616 l 178 400 l 344 400 l 344 329 l 178 329 l 178 65 l 380 65 l 380 198 l 456 198 l 456 0 z"},"s":{"x_min":0,"x_max":319,"ha":319,"o":"m 31 0 l 31 156 l 92 156 q 99 110 120 84 q 141 58 172 58 q 194 58 207 71 q 220 83 220 105 q 220 120 212 132 q 205 145 178 166 l 90 237 q 65 256 52 283 q 38 310 38 339 q 38 386 67 416 q 95 446 139 446 q 161 446 181 436 q 201 427 222 406 l 222 437 l 277 437 l 277 305 l 223 305 q 211 343 193 362 q 175 380 150 380 q 132 380 121 369 q 109 357 109 340 q 109 328 117 316 q 125 305 146 288 l 227 223 q 260 196 276 168 q 292 140 292 108 q 292 56 262 24 q 232 -8 185 -8 q 159 -8 137 3 q 115 13 94 36 l 94 0 z"},">":{"x_min":0,"x_max":833,"ha":833,"o":"m 704 323 l 704 273 l 129 37 l 129 100 l 617 298 l 129 497 l 129 559 z"},"l":{"x_min":0,"x_max":215,"ha":215,"o":"m 23 0 l 23 60 l 69 60 l 69 620 l 23 620 l 23 681 l 146 681 l 146 60 l 192 60 l 192 0 z"},"8":{"x_min":0,"x_max":389,"ha":389,"o":"m 270 176 l 270 199 q 270 255 250 285 q 231 314 194 314 q 157 314 138 285 q 119 256 119 199 l 119 176 q 119 113 137 83 q 156 53 194 53 q 233 53 251 83 q 270 113 270 176 z m 267 489 l 267 512 q 267 561 248 587 q 229 613 194 613 q 159 613 140 587 q 122 562 122 512 l 122 489 q 122 438 140 412 q 158 386 194 386 q 230 386 249 412 q 267 438 267 489 z m 248 350 q 298 345 322 300 q 346 256 346 169 q 346 76 309 31 q 271 -14 194 -14 q 117 -14 80 31 q 43 76 43 169 q 43 256 67 300 q 91 345 141 350 q 94 354 69 390 q 45 425 45 489 q 45 589 81 635 q 117 682 194 682 q 271 682 308 635 q 344 588 344 489 q 344 425 320 390 q 295 354 248 350 z"},"\\":{"x_min":0,"x_max":282,"ha":282,"o":"m 258 -93 l -24 694 l 25 694 l 307 -93 z"},"e":{"x_min":0,"x_max":338,"ha":338,"o":"m 108 260 l 235 260 l 235 288 q 235 332 219 356 q 202 381 174 381 q 140 381 124 356 q 108 331 108 275 z m 307 134 q 301 64 266 28 q 230 -8 169 -8 q 101 -8 65 36 q 30 81 30 165 l 30 257 q 30 347 66 396 q 102 446 167 446 q 236 446 273 399 q 310 352 310 262 l 310 203 l 108 203 l 108 175 q 108 113 124 85 q 140 57 174 57 q 202 57 218 76 q 233 95 238 134 z"},"b":{"x_min":0,"x_max":396,"ha":396,"o":"m 146 173 q 146 115 162 88 q 179 62 214 62 q 247 62 263 87 q 279 111 279 162 l 279 289 q 279 334 264 356 q 249 378 218 378 q 182 378 164 354 q 146 329 146 281 z m 23 0 l 23 60 l 69 60 l 69 620 l 23 620 l 23 681 l 146 681 l 146 394 q 168 420 192 433 q 216 446 242 446 q 297 446 326 404 q 356 362 356 283 l 356 158 q 356 79 327 35 q 297 -8 244 -8 q 209 -8 185 7 q 160 22 138 57 l 138 0 z"},"%":{"x_min":0,"x_max":558,"ha":558,"o":"m 97 -14 l 416 681 l 460 681 l 142 -14 z m 402 100 q 402 75 409 63 q 416 51 431 51 q 446 51 454 63 q 462 76 462 100 l 462 247 q 462 271 454 283 q 446 296 431 296 q 416 296 409 284 q 402 272 402 247 z m 343 102 l 343 245 q 343 295 365 321 q 388 347 431 347 q 475 347 498 321 q 521 295 521 245 l 521 102 q 521 52 498 26 q 475 0 431 0 q 388 0 365 26 q 343 52 343 102 z m 96 420 q 96 396 104 383 q 111 371 126 371 q 141 371 148 383 q 156 396 156 420 l 156 567 q 156 591 148 604 q 141 616 126 616 q 111 616 104 604 q 96 592 96 567 z m 37 422 l 37 565 q 37 615 60 641 q 83 667 126 667 q 169 667 192 641 q 215 615 215 565 l 215 422 q 215 372 192 346 q 170 320 126 320 q 83 320 60 346 q 37 372 37 422 z"},"m":{"x_min":0,"x_max":632,"ha":632,"o":"m 346 390 q 372 418 398 432 q 425 446 455 446 q 509 446 533 417 q 558 388 558 323 l 558 60 l 604 60 l 604 0 l 435 0 l 435 60 l 481 60 l 481 306 q 481 346 471 364 q 460 381 437 381 q 414 381 394 369 q 373 357 355 334 l 355 60 l 402 60 l 402 0 l 233 0 l 233 60 l 279 60 l 279 306 q 279 346 269 364 q 258 381 235 381 q 212 381 192 369 q 171 357 153 334 l 153 60 l 199 60 l 199 0 l 30 0 l 30 60 l 76 60 l 76 377 l 30 377 l 30 437 l 146 437 l 146 383 q 171 415 200 430 q 229 446 262 446 q 294 446 316 431 q 338 417 346 390 z"},"#":{"x_min":0,"x_max":769,"ha":769,"o":"m 475 421 l 346 421 l 300 288 l 428 288 z m 450 711 l 369 481 l 496 481 l 578 711 l 648 711 l 568 481 l 718 481 l 697 421 l 545 421 l 499 288 l 660 288 l 639 228 l 477 228 l 396 -1 l 325 -1 l 407 228 l 278 228 l 196 -1 l 126 -1 l 207 228 l 51 228 l 72 288 l 228 288 l 275 421 l 108 421 l 129 481 l 297 481 l 379 711 z"},",":{"x_min":0,"x_max":194,"ha":194,"o":"m 75 92 l 139 92 l 82 -106 l 18 -106 z"},"n":{"x_min":0,"x_max":440,"ha":440,"o":"m 366 323 l 366 60 l 412 60 l 412 0 l 243 0 l 243 60 l 289 60 l 289 306 q 289 346 278 363 q 267 381 242 381 q 217 381 195 369 q 173 358 153 334 l 153 60 l 199 60 l 199 0 l 30 0 l 30 60 l 76 60 l 76 377 l 30 377 l 30 437 l 146 437 l 146 383 q 171 415 200 430 q 229 446 263 446 q 317 446 342 417 q 366 388 366 323 z"},"h":{"x_min":0,"x_max":433,"ha":433,"o":"m 23 681 l 146 681 l 146 391 q 167 417 195 432 q 223 446 256 446 q 310 446 334 417 q 359 388 359 323 l 359 60 l 405 60 l 405 0 l 236 0 l 236 60 l 282 60 l 282 306 q 282 346 271 363 q 260 381 235 381 q 210 381 188 369 q 166 358 146 334 l 146 60 l 192 60 l 192 0 l 23 0 l 23 60 l 69 60 l 69 620 l 23 620 z"},"z":{"x_min":0,"x_max":370,"ha":370,"o":"m 20 0 l 20 58 l 249 380 l 91 380 l 91 303 l 29 303 l 29 437 l 337 437 l 337 380 l 108 58 l 274 58 l 274 150 l 337 150 l 337 0 z"},"B":{"x_min":0,"x_max":486,"ha":486,"o":"m 178 65 l 258 65 q 313 65 337 90 q 361 116 361 176 l 361 235 q 361 288 338 311 q 315 334 262 334 l 178 334 z m 178 397 l 251 397 q 309 397 332 420 q 354 442 354 500 l 354 535 q 354 576 332 596 q 310 616 265 616 l 178 616 z m 25 0 l 25 62 l 93 62 l 93 618 l 25 618 l 25 681 l 270 681 q 354 681 395 644 q 437 606 437 531 l 437 503 q 437 445 411 411 q 385 377 332 367 q 392 357 420 323 q 448 289 448 225 l 448 170 q 448 84 407 42 q 365 0 282 0 z"},"K":{"x_min":0,"x_max":516,"ha":516,"o":"m 25 0 l 25 62 l 93 62 l 93 618 l 25 618 l 25 681 l 245 681 l 245 618 l 178 618 l 178 361 l 372 618 l 301 618 l 301 681 l 514 681 l 514 618 l 459 618 l 266 361 l 465 62 l 517 62 l 517 0 l 304 0 l 304 62 l 371 62 l 178 355 l 178 62 l 245 62 l 245 0 z"},"R":{"x_min":0,"x_max":519,"ha":519,"o":"m 178 389 l 266 389 q 317 389 341 409 q 365 430 365 473 l 365 538 q 365 582 344 599 q 323 616 265 616 l 178 616 z m 25 0 l 25 62 l 93 62 l 93 618 l 25 618 l 25 681 l 259 681 q 365 681 407 647 q 449 613 449 529 l 449 483 q 449 422 425 395 q 401 367 339 356 q 402 350 426 328 q 449 306 449 253 l 449 62 l 516 62 l 516 0 l 368 0 l 368 251 q 368 293 349 309 q 330 324 276 324 l 178 324 l 178 62 l 245 62 l 245 0 z"},"T":{"x_min":0,"x_max":475,"ha":475,"o":"m 106 0 l 106 62 l 194 62 l 194 616 l 100 616 l 100 494 l 25 494 l 25 681 l 449 681 l 449 494 l 375 494 l 375 616 l 280 616 l 280 62 l 368 62 l 368 0 z"},"P":{"x_min":0,"x_max":481,"ha":481,"o":"m 178 356 l 244 356 q 315 356 341 378 q 367 401 367 460 l 367 524 q 367 575 341 596 q 315 616 249 616 l 178 616 z m 25 0 l 25 62 l 93 62 l 93 618 l 25 618 l 25 681 l 251 681 q 357 681 404 644 q 451 606 451 521 l 451 457 q 451 370 412 331 q 372 292 283 292 l 178 292 l 178 62 l 245 62 l 245 0 z"},"|":{"x_min":0,"x_max":500,"ha":500,"o":"m 281 764 l 281 -236 l 219 -236 l 219 764 z"},"t":{"x_min":0,"x_max":222,"ha":222,"o":"m 198 -3 q 184 -5 170 -7 q 157 -8 144 -8 q 102 -8 85 12 q 69 33 69 90 l 69 377 l 23 377 l 23 437 l 69 437 l 69 595 l 146 595 l 146 437 l 199 437 l 199 377 l 146 377 l 146 103 q 146 70 153 64 q 160 57 185 57 l 198 57 z"},"M":{"x_min":0,"x_max":648,"ha":648,"o":"m 25 681 l 216 681 l 324 247 l 437 681 l 623 681 l 623 618 l 556 618 l 556 62 l 623 62 l 623 0 l 407 0 l 407 62 l 475 62 l 479 618 l 339 79 l 300 79 l 164 618 l 164 62 l 231 62 l 231 0 l 25 0 l 25 62 l 93 62 l 93 618 l 25 618 z"},"g":{"x_min":0,"x_max":396,"ha":396,"o":"m 117 170 q 117 110 131 86 q 145 62 178 62 q 212 62 231 93 q 250 124 250 181 l 250 266 q 250 321 232 350 q 213 378 178 378 q 147 378 132 356 q 117 334 117 289 z m 250 45 q 231 17 208 5 q 185 -8 152 -8 q 98 -8 69 36 q 39 79 39 158 l 39 283 q 39 362 69 404 q 98 446 153 446 q 181 446 207 431 q 233 416 260 384 l 260 437 l 373 437 l 373 377 l 326 377 l 326 24 q 326 -97 291 -148 q 255 -199 173 -199 q 109 -199 76 -168 q 42 -138 42 -80 l 42 -73 l 109 -73 q 111 -105 126 -120 q 141 -134 173 -134 q 210 -134 230 -108 q 250 -83 250 -34 z"},"j":{"x_min":0,"x_max":208,"ha":208,"o":"m 23 437 l 146 437 l 146 -47 q 146 -130 115 -164 q 83 -197 7 -199 l 7 -137 q 43 -132 56 -116 q 69 -100 69 -37 l 69 377 l 23 377 z m 39 606 l 146 606 l 146 521 l 39 521 z"},"i":{"x_min":0,"x_max":222,"ha":222,"o":"m 46 521 l 46 606 l 153 606 l 153 521 z m 30 0 l 30 60 l 76 60 l 76 377 l 30 377 l 30 437 l 153 437 l 153 60 l 199 60 l 199 0 z"},"y":{"x_min":0,"x_max":391,"ha":391,"o":"m 53 -185 l 53 -125 l 103 -125 l 156 22 l 41 377 l 0 377 l 0 437 l 161 437 l 161 377 l 117 377 l 194 120 l 279 377 l 235 377 l 235 437 l 391 437 l 391 377 l 347 377 l 172 -125 l 222 -125 l 222 -185 z"},"@":{"x_min":0,"x_max":1000,"ha":1000,"o":"m 631 412 l 659 471 l 713 471 l 644 194 q 641 182 640 172 q 638 163 638 155 q 638 133 652 122 q 665 111 692 111 q 714 111 741 123 q 768 134 791 154 q 834 191 859 250 q 884 309 884 374 q 884 504 788 583 q 693 662 535 662 q 453 662 383 637 q 312 611 256 562 q 188 502 153 424 q 118 346 118 251 q 118 167 148 103 q 177 39 239 -10 q 288 -49 356 -71 q 424 -92 500 -92 q 584 -92 663 -68 q 743 -44 808 0 l 830 -32 q 758 -85 677 -113 q 596 -140 508 -140 q 415 -140 338 -117 q 261 -95 203 -50 q 128 7 92 83 q 55 159 55 255 q 55 334 80 406 q 104 477 153 537 q 224 623 323 667 q 423 712 545 712 q 625 712 697 691 q 768 669 818 630 q 881 582 913 518 q 946 454 946 380 q 946 297 915 229 q 885 161 826 114 q 792 87 754 73 q 715 59 674 59 q 625 59 601 78 q 577 97 577 135 q 577 136 578 140 q 578 144 578 146 q 553 104 516 81 q 479 59 433 59 q 358 59 319 101 q 280 142 280 221 q 280 333 347 411 q 414 489 509 489 q 553 489 584 469 q 614 450 631 412 z m 587 231 l 616 349 q 608 393 581 417 q 554 442 515 442 q 444 442 396 378 q 348 313 348 218 q 348 164 373 135 q 398 106 444 106 q 494 106 533 140 q 573 175 587 231 z"},".":{"x_min":0,"x_max":194,"ha":194,"o":"m 47 42 q 47 62 62 77 q 77 92 97 92 q 118 92 133 77 q 147 63 147 42 q 147 22 132 7 q 117 -8 97 -8 q 78 -8 62 7 q 47 22 47 42 z"},"p":{"x_min":0,"x_max":396,"ha":396,"o":"m 279 297 q 279 337 263 357 q 248 376 215 376 q 182 376 164 351 q 146 325 146 278 l 146 179 q 146 119 165 90 q 184 61 222 61 q 251 61 265 82 q 279 103 279 147 z m 356 329 l 356 116 q 356 57 327 25 q 298 -8 247 -8 q 220 -8 194 5 q 167 19 146 44 l 146 -125 l 192 -125 l 192 -185 l 23 -185 l 23 -125 l 69 -125 l 69 377 l 23 377 l 23 437 l 139 437 l 139 383 q 166 416 193 431 q 220 446 252 446 q 302 446 329 416 q 356 386 356 329 z"},"X":{"x_min":0,"x_max":486,"ha":486,"o":"m 11 0 l 11 62 l 56 62 l 202 333 l 56 618 l 14 618 l 14 681 l 207 681 l 207 618 l 146 618 l 248 418 l 353 618 l 298 618 l 298 681 l 475 681 l 475 618 l 435 618 l 287 342 l 432 62 l 473 62 l 473 0 l 278 0 l 278 62 l 343 62 l 241 257 l 137 62 l 197 62 l 197 0 z"},"*":{"x_min":0,"x_max":324,"ha":324,"o":"m 103 447 l 68 473 l 129 554 l 31 584 l 45 626 l 140 593 l 140 694 l 184 694 l 183 593 l 279 625 l 293 584 l 195 553 l 256 472 l 220 446 l 162 529 z"},"Y":{"x_min":0,"x_max":481,"ha":481,"o":"m 12 681 l 206 681 l 206 618 l 146 618 l 238 363 l 347 618 l 287 618 l 287 681 l 470 681 l 470 618 l 425 618 l 277 271 l 277 62 l 344 62 l 344 0 l 124 0 l 124 62 l 191 62 l 191 271 l 59 618 l 12 618 z"},"c":{"x_min":0,"x_max":329,"ha":329,"o":"m 306 155 l 306 146 q 306 73 271 33 q 236 -8 174 -8 q 103 -8 66 39 q 30 85 30 175 l 30 275 q 30 358 60 402 q 91 446 148 446 q 171 446 193 436 q 214 426 238 405 l 238 437 l 292 437 l 292 292 l 230 292 q 226 337 210 359 q 195 381 166 381 q 135 381 122 356 q 108 331 108 274 l 108 173 q 108 113 123 85 q 139 57 171 57 q 204 57 220 81 q 236 105 236 155 z"},"!":{"x_min":0,"x_max":275,"ha":275,"o":"m 168 186 l 107 186 q 105 319 101 442 q 97 565 90 681 l 185 681 q 178 565 174 442 q 169 319 168 186 z m 88 36 q 88 57 102 71 q 117 86 137 86 q 158 86 173 71 q 188 57 188 36 q 188 16 173 1 q 157 -14 137 -14 q 118 -14 103 1 q 88 17 88 36 z"},"/":{"x_min":0,"x_max":282,"ha":282,"o":"m -24 -93 l 258 694 l 306 694 l 25 -93 z"},"[":{"x_min":0,"x_max":255,"ha":255,"o":"m 74 -81 l 74 681 l 255 681 l 255 630 l 150 630 l 150 -30 l 255 -30 l 255 -81 z"},"6":{"x_min":0,"x_max":389,"ha":389,"o":"m 270 227 q 270 277 250 305 q 231 333 196 333 q 152 333 134 302 q 115 271 115 198 l 115 172 q 115 113 135 83 q 155 54 196 54 q 231 54 251 82 q 270 110 270 162 z m 342 522 l 342 495 l 272 495 l 272 520 q 272 569 253 591 q 235 614 195 614 q 156 614 138 586 q 119 559 119 502 l 119 357 q 133 378 156 389 q 179 401 207 401 q 279 401 315 347 q 352 294 352 189 q 352 90 311 38 q 269 -14 190 -14 q 158 -14 129 0 q 99 13 80 36 q 60 61 51 93 q 42 125 42 203 l 42 467 q 42 577 78 629 q 115 681 192 681 q 263 681 302 639 q 342 597 342 522 z"},"r":{"x_min":0,"x_max":312,"ha":312,"o":"m 276 446 l 304 446 l 304 365 l 298 365 q 224 365 188 326 q 153 287 153 206 l 153 60 l 218 60 l 218 0 l 23 0 l 23 60 l 76 60 l 76 377 l 30 377 l 30 437 l 150 437 l 150 347 q 172 396 204 421 q 235 446 276 446 z"},"2":{"x_min":0,"x_max":389,"ha":389,"o":"m 35 454 l 35 473 q 35 584 71 633 q 106 681 186 681 q 260 681 299 642 q 339 602 339 528 q 339 476 320 422 q 301 369 255 295 l 116 71 l 272 71 l 272 176 l 342 176 l 342 0 l 33 0 l 33 69 l 172 294 q 216 366 237 420 q 257 475 257 521 q 257 569 239 590 q 222 611 182 611 q 139 611 123 583 q 106 556 106 460 l 106 454 z"},"{":{"x_min":0,"x_max":500,"ha":500,"o":"m 419 659 q 415 659 408 660 q 400 660 397 660 q 338 660 317 637 q 296 614 296 541 l 296 423 q 296 342 275 308 q 253 274 199 259 q 253 244 275 210 q 296 176 296 95 l 296 -23 q 296 -96 317 -118 q 338 -141 400 -141 l 419 -141 l 419 -202 l 402 -202 q 354 -202 324 -196 q 294 -190 274 -177 q 247 -159 236 -128 q 225 -97 225 -24 l 225 95 q 225 169 198 199 q 171 229 106 229 q 103 229 95 229 q 88 228 84 228 l 84 290 q 88 290 95 290 q 103 289 106 289 q 171 289 198 319 q 225 349 225 424 l 225 543 q 225 618 236 648 q 247 679 274 696 q 294 709 324 715 q 353 721 402 721 l 419 721 z"},"9":{"x_min":0,"x_max":389,"ha":389,"o":"m 118 441 q 118 390 137 362 q 157 334 192 334 q 235 334 254 365 q 273 396 273 469 l 273 495 q 273 554 253 583 q 232 613 192 613 q 156 613 137 585 q 118 558 118 506 z m 46 172 l 116 172 l 116 147 q 116 98 135 76 q 153 53 193 53 q 231 53 250 81 q 269 108 269 165 l 269 310 q 254 288 231 277 q 208 266 177 266 q 108 266 72 320 q 36 375 36 478 q 36 577 77 629 q 119 681 198 681 q 271 681 309 630 q 346 579 346 479 l 346 200 q 346 90 310 38 q 273 -14 196 -14 q 125 -14 85 28 q 46 70 46 145 z"}," ":{"x_min":0,"x_max":194,"ha":194,"o":""},"I":{"x_min":0,"x_max":271,"ha":271,"o":"m 25 0 l 25 62 l 93 62 l 93 618 l 25 618 l 25 681 l 245 681 l 245 618 l 178 618 l 178 62 l 245 62 l 245 0 z"},"H":{"x_min":0,"x_max":542,"ha":542,"o":"m 25 681 l 245 681 l 245 618 l 178 618 l 178 403 l 363 403 l 363 618 l 296 618 l 296 681 l 516 681 l 516 618 l 449 618 l 449 62 l 516 62 l 516 0 l 296 0 l 296 62 l 363 62 l 363 331 l 178 331 l 178 62 l 245 62 l 245 0 l 25 0 l 25 62 l 93 62 l 93 618 l 25 618 z"},"4":{"x_min":0,"x_max":389,"ha":389,"o":"m 205 667 l 283 667 l 283 252 l 335 252 l 335 191 l 283 191 l 283 61 l 335 61 l 335 0 l 147 0 l 147 61 l 205 61 l 205 191 l 24 191 l 24 252 z m 84 252 l 205 252 l 205 525 z"},"~":{"x_min":0,"x_max":833,"ha":833,"o":"m 747 306 q 698 271 651 253 q 604 236 558 236 q 537 236 514 240 q 491 245 465 253 q 450 258 422 268 q 324 303 275 303 q 234 303 190 285 q 146 267 87 225 l 87 290 q 138 326 186 343 q 233 361 276 361 q 303 361 333 355 q 362 349 418 329 q 425 327 439 321 q 517 293 559 293 q 600 293 644 311 q 688 329 747 370 z"},"D":{"x_min":0,"x_max":498,"ha":498,"o":"m 178 616 l 178 65 l 201 65 q 296 65 337 109 q 378 153 378 256 l 378 435 q 378 534 339 575 q 301 616 207 616 z m 25 681 l 199 681 q 347 681 406 624 q 465 567 465 425 l 465 267 q 465 126 408 63 q 351 0 223 0 l 25 0 l 25 62 l 93 62 l 93 618 l 25 618 z"},"^":{"x_min":0,"x_max":1000,"ha":1000,"o":"m 539 712 l 793 440 l 716 440 l 500 654 l 284 440 l 206 440 l 460 712 z"},"0":{"x_min":0,"x_max":389,"ha":389,"o":"m 267 166 l 267 501 q 267 557 249 584 q 231 611 194 611 q 157 611 140 584 q 122 558 122 501 l 122 166 q 122 109 140 83 q 157 56 194 56 q 231 56 249 83 q 267 110 267 166 z m 350 476 l 350 190 q 350 90 310 38 q 271 -14 194 -14 q 118 -14 79 38 q 39 90 39 190 l 39 476 q 39 577 79 629 q 118 681 194 681 q 270 681 310 629 q 350 576 350 476 z"},"F":{"x_min":0,"x_max":477,"ha":477,"o":"m 25 0 l 25 62 l 93 62 l 93 618 l 25 618 l 25 681 l 466 681 l 466 494 l 391 494 l 391 616 l 178 616 l 178 400 l 344 400 l 344 329 l 178 329 l 178 62 l 245 62 l 245 0 z"},"`":{"x_min":0,"x_max":500,"ha":500,"o":"m 135 670 l 223 670 l 313 500 l 260 500 z"},"k":{"x_min":0,"x_max":424,"ha":424,"o":"m 23 0 l 23 60 l 69 60 l 69 620 l 23 620 l 23 681 l 146 681 l 146 237 l 291 382 l 221 382 l 221 437 l 418 437 l 418 377 l 373 377 l 228 235 l 377 60 l 424 60 l 424 0 l 234 0 l 234 60 l 286 60 l 146 232 l 146 60 l 192 60 l 192 0 z"},"u":{"x_min":0,"x_max":433,"ha":433,"o":"m 28 437 l 150 437 l 150 131 q 150 90 162 73 q 173 56 201 56 q 224 56 246 68 q 268 80 287 103 l 287 377 l 241 377 l 241 437 l 363 437 l 363 60 l 410 60 l 410 0 l 294 0 l 294 54 q 270 23 240 8 q 211 -8 177 -8 q 123 -8 98 21 q 74 49 74 114 l 74 377 l 28 377 z"},"]":{"x_min":0,"x_max":255,"ha":255,"o":"m 181 681 l 181 -81 l 0 -81 l 0 -30 l 104 -30 l 104 630 l 0 630 l 0 681 z"},"U":{"x_min":0,"x_max":542,"ha":542,"o":"m 93 172 l 93 618 l 25 618 l 25 681 l 245 681 l 245 618 l 178 618 l 178 175 q 178 113 200 85 q 223 56 271 56 q 319 56 341 84 q 363 113 363 175 l 363 618 l 296 618 l 296 681 l 516 681 l 516 618 l 449 618 l 449 172 q 449 81 404 33 q 358 -14 271 -14 q 184 -14 138 33 q 93 81 93 172 z"},"o":{"x_min":0,"x_max":347,"ha":347,"o":"m 240 263 q 240 325 224 353 q 208 381 174 381 q 140 381 124 353 q 108 325 108 263 l 108 175 q 108 113 124 85 q 140 57 174 57 q 208 57 224 85 q 240 113 240 175 z m 317 273 l 317 165 q 317 81 280 36 q 244 -8 174 -8 q 104 -8 67 36 q 30 81 30 165 l 30 273 q 30 357 67 402 q 104 446 174 446 q 244 446 280 402 q 317 357 317 273 z"},"N":{"x_min":0,"x_max":556,"ha":556,"o":"m 25 0 l 25 62 l 93 62 l 93 618 l 25 618 l 25 681 l 185 681 l 391 169 l 391 618 l 324 618 l 324 681 l 530 681 l 530 618 l 463 618 l 463 -7 l 389 -7 l 164 549 l 164 62 l 231 62 l 231 0 z"},"+":{"x_min":0,"x_max":833,"ha":833,"o":"m 446 596 l 446 327 l 709 327 l 709 270 l 446 270 l 446 0 l 388 0 l 388 270 l 124 270 l 124 327 l 388 327 l 388 596 z"},"G":{"x_min":0,"x_max":428,"ha":428,"o":"m 334 40 q 308 12 278 -1 q 248 -14 210 -14 q 125 -14 79 41 q 32 97 32 198 l 32 500 q 32 589 79 642 q 126 694 206 694 q 242 694 272 678 q 303 663 324 634 l 324 681 l 385 681 l 385 493 l 319 493 l 318 508 q 311 570 288 597 q 265 625 222 625 q 169 625 144 593 q 119 560 119 491 l 119 189 q 119 120 144 88 q 168 56 222 56 q 272 56 299 90 q 325 125 325 191 l 325 249 l 255 249 l 255 321 l 402 321 l 402 0 l 362 0 z"},"q":{"x_min":0,"x_max":396,"ha":396,"o":"m 250 274 q 250 324 232 350 q 214 375 178 375 q 147 375 132 353 q 117 331 117 286 l 117 167 q 117 107 131 83 q 145 59 178 59 q 212 59 231 90 q 250 121 250 178 z m 258 380 l 258 437 l 373 437 l 373 377 l 326 377 l 326 -125 l 373 -125 l 373 -185 l 204 -185 l 204 -125 l 250 -125 l 250 44 q 228 18 203 5 q 179 -8 153 -8 q 98 -8 68 34 q 39 75 39 154 l 39 279 q 39 357 69 402 q 99 446 152 446 q 187 446 211 431 q 236 416 258 380 z"},"d":{"x_min":0,"x_max":396,"ha":396,"o":"m 117 170 q 117 110 131 86 q 145 62 178 62 q 212 62 231 93 q 250 124 250 181 l 250 277 q 250 327 232 353 q 214 378 178 378 q 147 378 132 356 q 117 334 117 289 z m 258 57 q 236 22 211 7 q 187 -8 152 -8 q 98 -8 69 36 q 39 79 39 158 l 39 283 q 39 362 69 404 q 98 446 153 446 q 179 446 203 433 q 228 420 250 394 l 250 620 l 204 620 l 204 681 l 326 681 l 326 60 l 373 60 l 373 0 l 258 0 z"},"1":{"x_min":0,"x_max":389,"ha":389,"o":"m 100 0 l 100 60 l 156 60 l 156 608 l 100 608 l 100 667 l 239 667 l 239 60 l 298 60 l 298 0 z"},"5":{"x_min":0,"x_max":389,"ha":389,"o":"m 72 322 l 72 667 l 311 667 l 311 594 l 142 594 l 142 405 q 156 414 172 418 q 188 423 205 423 q 276 423 312 369 q 349 314 349 209 q 349 95 310 40 q 270 -14 188 -14 q 119 -14 81 31 q 43 75 43 157 l 43 176 l 118 176 l 118 150 q 118 102 138 78 q 157 54 196 54 q 236 54 252 82 q 268 109 268 181 l 268 229 q 268 300 251 328 q 234 356 194 356 q 177 356 162 347 q 146 339 134 322 z"}}}
